<?xml version="1.0" encoding="UTF-8" standalone="no" ?>
<!DOCTYPE svg PUBLIC "-//W3C//DTD SVG 1.1//EN" "http://www.w3.org/Graphics/SVG/1.1/DTD/svg11.dtd">
<svg xmlns="http://www.w3.org/2000/svg" xmlns:xlink="http://www.w3.org/1999/xlink" version="1.1" width="1080" height="1080" viewBox="0 0 1080 1080" xml:space="preserve">
<desc>Created with Fabric.js 5.2.4</desc>
<defs>
</defs>
<g transform="matrix(1 0 0 1 540 540)" id="507288d2-d8bd-4d72-ab92-8c516902203c"  >
<rect style="stroke: none; stroke-width: 1; stroke-dasharray: none; stroke-linecap: butt; stroke-dashoffset: 0; stroke-linejoin: miter; stroke-miterlimit: 4; fill: rgb(255,255,255); fill-rule: nonzero; opacity: 1; visibility: hidden;" vector-effect="non-scaling-stroke"  x="-540" y="-540" rx="0" ry="0" width="1080" height="1080" />
</g>
<g transform="matrix(1 0 0 1 540 540)" id="bfd8fc4b-0781-4e9a-aa89-ca77da150e47"  >
</g>
<g transform="matrix(13.08 0 0 13.08 540.36 541.36)" id="247c311d-bdfe-49e4-96a5-c369cd04d03e"  >
<circle style="stroke: rgb(0,0,0); stroke-width: 0; stroke-dasharray: none; stroke-linecap: butt; stroke-dashoffset: 0; stroke-linejoin: miter; stroke-miterlimit: 4; fill: rgb(30,33,78); fill-rule: nonzero; opacity: 1;" vector-effect="non-scaling-stroke"  cx="0" cy="0" r="35" />
</g>
<g transform="matrix(1 0 0 1 540 540)"  >
<g style="" vector-effect="non-scaling-stroke"   >
		<g transform="matrix(0.13 0 0 -0.13 0 0)"  >
<path style="stroke: none; stroke-width: 1; stroke-dasharray: none; stroke-linecap: butt; stroke-dashoffset: 0; stroke-linejoin: miter; stroke-miterlimit: 4; fill: rgb(186,96,216); fill-rule: nonzero; opacity: 1;" vector-effect="non-scaling-stroke"  transform=" translate(-5123.46, -5034.56)" d="M 4885 8243 C 4471 8208 4051 8091 3695 7912 C 3074 7601 2561 7079 2231 6422 C 2125 6210 2039 5961 1981 5695 C 1920 5416 1915 5364 1915 4995 C 1916 4683 1917 4657 1942 4510 C 2063 3812 2361 3235 2846 2758 C 3384 2229 4129 1890 4884 1830 C 5739 1762 6638 2072 7296 2661 C 7765 3080 8108 3663 8248 4280 C 8422 5044 8324 5812 7967 6490 C 7643 7107 7130 7619 6543 7914 C 6196 8087 5803 8202 5426 8239 C 5326 8249 4982 8252 4885 8243 z M 5428 7909 C 5723 7877 6135 7751 6397 7614 C 6844 7381 7192 7076 7487 6658 C 7681 6384 7828 6064 7918 5720 C 8012 5363 8034 4931 7974 4580 C 7951 4444 7892 4218 7843 4076 C 7765 3853 7621 3554 7548 3466 L 7519 3430 L 7411 3430 L 7303 3430 L 7297 3498 C 7292 3549 7286 3569 7269 3583 C 7238 3608 7194 3605 7165 3575 C 7144 3555 7140 3541 7140 3490 L 7140 3429 L 7083 3432 L 7025 3435 L 7020 4063 L 7015 4692 L 6991 4711 C 6950 4744 6898 4735 6875 4689 C 6863 4666 6860 4598 6860 4307 L 6860 3952 L 6834 3946 C 6820 3942 6752 3913 6684 3880 L 6560 3821 L 6560 4306 C 6560 4720 6558 4795 6545 4820 C 6518 4872 6439 4872 6413 4820 C 6404 4802 6400 4720 6400 4518 C 6400 4302 6397 4240 6388 4240 C 6354 4240 6270 4292 6228 4339 C 6170 4404 6148 4466 6141 4593 C 6136 4681 6132 4694 6111 4711 C 6087 4730 6055 4735 6025 4724 C 5960 4699 5966 4480 6035 4332 C 6096 4203 6210 4111 6340 4084 L 6395 4073 L 6398 3752 L 6400 3430 L 6195 3430 L 5990 3430 L 5990 3511 L 5990 3593 L 6059 3665 C 6160 3772 6183 3849 6128 3900 C 6075 3949 6002 3906 5929 3782 L 5902 3738 L 5870 3786 C 5786 3911 5712 3951 5663 3898 C 5609 3838 5633 3775 5755 3652 L 5840 3567 L 5840 3499 L 5840 3430 L 5520 3430 L 5200 3430 L 5200 3594 L 5200 3758 L 5430 3981 C 5567 4113 5663 4214 5667 4229 C 5681 4284 5617 4340 5563 4319 C 5548 4313 5470 4245 5390 4167 C 5310 4088 5235 4016 5223 4006 L 5200 3987 L 5200 4311 L 5200 4635 L 5302 4734 C 5359 4788 5449 4872 5502 4921 C 5594 5005 5602 5010 5643 5010 C 5698 5010 5763 5051 5797 5106 C 5841 5179 5819 5291 5752 5339 C 5616 5435 5442 5337 5452 5169 L 5455 5110 L 5335 4990 C 5269 4924 5212 4870 5208 4870 C 5203 4870 5200 5089 5200 5358 L 5200 5845 L 5267 5905 C 5304 5938 5409 6034 5500 6119 C 5591 6204 5677 6284 5691 6297 C 5709 6314 5733 6322 5770 6325 C 5836 6331 5897 6366 5934 6419 C 6026 6552 5922 6740 5758 6740 C 5643 6740 5559 6662 5552 6547 C 5549 6506 5553 6472 5563 6448 L 5578 6413 L 5535 6377 C 5511 6357 5429 6280 5352 6205 C 5275 6131 5210 6070 5206 6070 C 5203 6070 5200 6164 5200 6278 L 5200 6487 L 5337 6621 C 5677 6953 5660 6934 5660 6967 C 5660 7004 5629 7046 5596 7052 C 5552 7061 5517 7034 5362 6876 C 5277 6790 5207 6720 5204 6720 C 5202 6720 5200 6763 5200 6817 L 5200 6913 L 5249 6965 C 5289 7007 5300 7026 5305 7065 C 5319 7152 5279 7234 5205 7270 C 5098 7322 4978 7270 4945 7156 C 4921 7076 4939 7013 5004 6951 L 5040 6916 L 5040 6816 L 5040 6716 L 4871 6883 C 4715 7038 4700 7050 4666 7050 C 4618 7050 4580 7014 4580 6968 C 4579 6938 4600 6914 4810 6709 L 5040 6483 L 5040 5957 C 5040 5667 5037 5430 5034 5430 C 5031 5430 4930 5525 4810 5642 L 4591 5854 L 4627 5889 C 4719 5978 4723 6098 4637 6196 C 4548 6297 4378 6288 4304 6177 C 4226 6059 4264 5903 4384 5854 C 4423 5838 4430 5830 4441 5792 C 4452 5754 4487 5716 4746 5468 L 5040 5187 L 5040 4833 L 5040 4479 L 5010 4500 C 4994 4511 4978 4525 4975 4530 C 4972 4535 4904 4600 4824 4675 C 4666 4823 4647 4832 4594 4787 C 4563 4760 4559 4714 4583 4676 C 4597 4655 4901 4363 4997 4278 L 5039 4241 L 5042 4126 C 5044 4062 5043 4010 5041 4010 C 5039 4010 4990 4054 4933 4108 C 4717 4309 4691 4330 4659 4330 C 4618 4330 4595 4316 4581 4282 C 4559 4229 4554 4234 4948 3855 L 5040 3766 L 5040 3598 L 5040 3430 L 4725 3430 L 4410 3430 L 4410 3504 L 4410 3578 L 4485 3651 C 4531 3695 4570 3744 4586 3776 C 4609 3823 4611 3833 4600 3865 C 4569 3960 4478 3931 4384 3795 C 4364 3765 4346 3740 4344 3740 C 4343 3740 4330 3761 4315 3788 C 4248 3903 4161 3951 4110 3900 C 4085 3875 4083 3812 4106 3767 C 4124 3733 4177 3664 4222 3618 C 4248 3591 4250 3583 4250 3509 L 4250 3430 L 4048 3432 L 3845 3435 L 3842 3655 C 3840 3776 3842 3921 3845 3976 L 3852 4078 L 3894 4082 C 3969 4091 4054 4137 4118 4204 C 4221 4311 4260 4416 4260 4587 C 4260 4678 4258 4692 4239 4711 C 4210 4740 4154 4734 4127 4697 C 4110 4676 4105 4649 4100 4572 C 4093 4457 4065 4387 4003 4325 C 3964 4287 3866 4231 3855 4241 C 3853 4244 3848 4374 3844 4531 L 3838 4815 L 3814 4837 C 3781 4867 3745 4866 3715 4835 L 3690 4811 L 3690 4314 C 3690 3921 3687 3819 3678 3823 C 3671 3826 3599 3859 3517 3896 L 3370 3964 L 3370 4306 C 3370 4657 3366 4701 3330 4720 C 3299 4736 3258 4731 3233 4708 L 3210 4687 L 3210 4058 L 3210 3430 L 3155 3430 L 3100 3430 L 3100 3714 C 3100 4006 3095 4051 3060 4070 C 3028 4087 2978 4081 2954 4059 L 2931 4038 L 2832 4084 C 2705 4143 2673 4144 2644 4089 C 2608 4018 2683 3946 2860 3884 L 2925 3861 L 2928 3645 L 2930 3430 L 2826 3430 C 2705 3430 2707 3429 2641 3539 C 2538 3714 2417 3991 2356 4193 C 2311 4343 2254 4606 2241 4732 C 2227 4857 2227 5172 2240 5298 C 2267 5545 2348 5863 2447 6104 C 2544 6343 2708 6621 2873 6825 C 3033 7023 3270 7248 3473 7394 C 3844 7659 4354 7854 4835 7913 C 4906 7922 5339 7919 5428 7909 z M 5794 6548 C 5818 6508 5750 6468 5723 6506 C 5706 6529 5707 6535 5726 6555 C 5746 6575 5779 6571 5794 6548 z M 4508 6078 C 4525 6061 4523 6025 4505 6010 C 4467 5979 4409 6037 4440 6075 C 4455 6093 4491 6095 4508 6078 z M 3583 3680 L 3690 3628 L 3690 3529 L 3690 3430 L 3530 3430 L 3370 3430 L 3370 3605 L 3370 3780 L 3423 3756 C 3451 3743 3523 3709 3583 3680 z M 6860 3605 L 6860 3430 L 6710 3430 L 6560 3430 L 6560 3533 L 6560 3635 L 6708 3707 C 6789 3746 6856 3779 6858 3779 C 6859 3780 6860 3701 6860 3605 z M 7269 3131 C 7301 3110 7180 2976 7118 2965 C 7100 2962 6192 2960 5100 2962 C 3270 2965 3113 2966 3085 2982 C 3042 3006 2960 3098 2960 3122 C 2960 3136 7247 3145 7269 3131 z M 5415 2768 C 5435 2745 5440 2730 5435 2711 C 5422 2653 5356 2632 5313 2672 C 5282 2701 5283 2744 5315 2775 C 5348 2809 5382 2807 5415 2768 z M 4195 2695 C 4240 2651 4219 2580 4158 2565 C 4145 2562 4018 2560 3876 2562 L 3618 2565 L 3594 2593 C 3563 2629 3563 2664 3595 2695 L 3619 2720 L 3895 2720 L 4171 2720 L 4195 2695 z M 6647 2705 C 6694 2672 6679 2595 6622 2571 C 6602 2562 6527 2560 6371 2562 C 6151 2565 6148 2565 6129 2589 C 6104 2620 6104 2674 6130 2700 C 6149 2719 6163 2720 6388 2720 C 6581 2720 6629 2717 6647 2705 z M 5407 2486 C 5426 2463 5430 2450 5426 2426 C 5412 2357 5435 2360 4918 2357 C 4464 2355 4452 2356 4430 2375 C 4398 2404 4388 2435 4402 2466 C 4427 2520 4427 2520 4923 2517 L 5382 2515 L 5407 2486 z M 5835 2498 C 5888 2452 5854 2360 5784 2360 C 5749 2360 5710 2402 5710 2440 C 5710 2478 5749 2520 5784 2520 C 5798 2520 5821 2510 5835 2498 z" stroke-linecap="round" />
</g>
		<g transform="matrix(0.13 0 0 -0.13 -85.66 -297.73)"  >
<path style="stroke: none; stroke-width: 1; stroke-dasharray: none; stroke-linecap: butt; stroke-dashoffset: 0; stroke-linejoin: miter; stroke-miterlimit: 4; fill: rgb(186,96,216); fill-rule: nonzero; opacity: 1;" vector-effect="non-scaling-stroke"  transform=" translate(-4481.02, -7267.57)" d="M 4444 7339 C 4397 7315 4388 7252 4425 7215 C 4457 7182 4508 7181 4538 7213 C 4566 7242 4567 7300 4542 7323 C 4518 7345 4471 7352 4444 7339 z" stroke-linecap="round" />
</g>
		<g transform="matrix(0.13 0 0 -0.13 92.58 -297.6)"  >
<path style="stroke: none; stroke-width: 1; stroke-dasharray: none; stroke-linecap: butt; stroke-dashoffset: 0; stroke-linejoin: miter; stroke-miterlimit: 4; fill: rgb(186,96,216); fill-rule: nonzero; opacity: 1;" vector-effect="non-scaling-stroke"  transform=" translate(-5817.79, -7266.57)" d="M 5767 7330 C 5717 7290 5728 7216 5789 7191 C 5813 7181 5823 7181 5849 7194 C 5905 7223 5917 7284 5875 7325 C 5845 7356 5802 7357 5767 7330 z" stroke-linecap="round" />
</g>
		<g transform="matrix(0.13 0 0 -0.13 -163.39 -263.18)"  >
<path style="stroke: none; stroke-width: 1; stroke-dasharray: none; stroke-linecap: butt; stroke-dashoffset: 0; stroke-linejoin: miter; stroke-miterlimit: 4; fill: rgb(186,96,216); fill-rule: nonzero; opacity: 1;" vector-effect="non-scaling-stroke"  transform=" translate(-3898.06, -7008.39)" d="M 3812 7251 C 3709 7215 3638 7116 3637 7005 C 3637 6903 3691 6817 3785 6774 C 3881 6729 3991 6746 4070 6817 C 4189 6924 4189 7101 4069 7203 C 3993 7268 3908 7284 3812 7251 z M 3966 7076 C 4010 7032 4011 6993 3971 6948 C 3946 6920 3935 6915 3895 6915 C 3855 6915 3845 6919 3824 6945 C 3787 6991 3791 7040 3835 7079 C 3884 7121 3922 7120 3966 7076 z" stroke-linecap="round" />
</g>
		<g transform="matrix(0.13 0 0 -0.13 164.14 -253.41)"  >
<path style="stroke: none; stroke-width: 1; stroke-dasharray: none; stroke-linecap: butt; stroke-dashoffset: 0; stroke-linejoin: miter; stroke-miterlimit: 4; fill: rgb(186,96,216); fill-rule: nonzero; opacity: 1;" vector-effect="non-scaling-stroke"  transform=" translate(-6354.52, -6935.1)" d="M 6295 6995 C 6226 6926 6307 6816 6393 6862 C 6424 6878 6439 6901 6440 6932 C 6440 6972 6431 6989 6399 7005 C 6358 7027 6322 7023 6295 6995 z" stroke-linecap="round" />
</g>
		<g transform="matrix(0.13 0 0 -0.13 -236.12 -163.73)"  >
<path style="stroke: none; stroke-width: 1; stroke-dasharray: none; stroke-linecap: butt; stroke-dashoffset: 0; stroke-linejoin: miter; stroke-miterlimit: 4; fill: rgb(186,96,216); fill-rule: nonzero; opacity: 1;" vector-effect="non-scaling-stroke"  transform=" translate(-3352.57, -6262.5)" d="M 3230 6578 C 3153 6548 3070 6464 3041 6385 C 3010 6304 3014 6188 3050 6115 C 3077 6060 3142 5990 3188 5966 C 3361 5877 3572 5946 3657 6119 C 3681 6168 3685 6186 3685 6265 C 3684 6343 3681 6362 3657 6408 C 3592 6533 3502 6592 3366 6597 C 3301 6600 3274 6596 3230 6578 z M 3417 6425 C 3465 6405 3488 6384 3511 6338 C 3563 6236 3492 6106 3376 6093 C 3316 6086 3287 6094 3245 6132 C 3197 6173 3180 6209 3180 6266 C 3180 6390 3303 6472 3417 6425 z" stroke-linecap="round" />
</g>
		<g transform="matrix(0.13 0 0 -0.13 -142.09 -193.91)"  >
<path style="stroke: none; stroke-width: 1; stroke-dasharray: none; stroke-linecap: butt; stroke-dashoffset: 0; stroke-linejoin: miter; stroke-miterlimit: 4; fill: rgb(186,96,216); fill-rule: nonzero; opacity: 1;" vector-effect="non-scaling-stroke"  transform=" translate(-4057.79, -6488.9)" d="M 4005 6545 C 3990 6531 3980 6509 3980 6492 C 3980 6407 4088 6378 4126 6452 C 4167 6531 4067 6608 4005 6545 z" stroke-linecap="round" />
</g>
		<g transform="matrix(0.13 0 0 -0.13 227.49 -183.96)"  >
<path style="stroke: none; stroke-width: 1; stroke-dasharray: none; stroke-linecap: butt; stroke-dashoffset: 0; stroke-linejoin: miter; stroke-miterlimit: 4; fill: rgb(186,96,216); fill-rule: nonzero; opacity: 1;" vector-effect="non-scaling-stroke"  transform=" translate(-6829.6, -6414.25)" d="M 6628 6513 C 6592 6471 6601 6431 6657 6379 C 6755 6287 6964 6272 7035 6350 C 7060 6377 7058 6426 7032 6452 C 7014 6471 7007 6472 6966 6461 C 6886 6441 6847 6447 6765 6490 C 6682 6534 6651 6539 6628 6513 z" stroke-linecap="round" />
</g>
		<g transform="matrix(0.13 0 0 -0.13 138.45 -132.89)"  >
<path style="stroke: none; stroke-width: 1; stroke-dasharray: none; stroke-linecap: butt; stroke-dashoffset: 0; stroke-linejoin: miter; stroke-miterlimit: 4; fill: rgb(186,96,216); fill-rule: nonzero; opacity: 1;" vector-effect="non-scaling-stroke"  transform=" translate(-6161.82, -6031.26)" d="M 6079 6119 C 6020 6056 6037 5965 6114 5926 C 6146 5910 6158 5909 6190 5919 C 6246 5936 6280 5981 6280 6037 C 6280 6075 6275 6087 6246 6116 C 6216 6146 6206 6150 6160 6150 C 6115 6150 6104 6146 6079 6119 z" stroke-linecap="round" />
</g>
		<g transform="matrix(0.13 0 0 -0.13 225.49 -127.43)"  >
<path style="stroke: none; stroke-width: 1; stroke-dasharray: none; stroke-linecap: butt; stroke-dashoffset: 0; stroke-linejoin: miter; stroke-miterlimit: 4; fill: rgb(186,96,216); fill-rule: nonzero; opacity: 1;" vector-effect="non-scaling-stroke"  transform=" translate(-6814.65, -5990.3)" d="M 6751 6044 C 6722 6007 6725 5974 6759 5939 C 6790 5908 6814 5903 6853 5921 C 6900 5942 6913 6001 6879 6044 C 6863 6065 6850 6070 6815 6070 C 6780 6070 6767 6065 6751 6044 z" stroke-linecap="round" />
</g>
		<g transform="matrix(0.13 0 0 -0.13 -180.9 -48.06)"  >
<path style="stroke: none; stroke-width: 1; stroke-dasharray: none; stroke-linecap: butt; stroke-dashoffset: 0; stroke-linejoin: miter; stroke-miterlimit: 4; fill: rgb(186,96,216); fill-rule: nonzero; opacity: 1;" vector-effect="non-scaling-stroke"  transform=" translate(-3766.68, -5395.01)" d="M 3665 5784 C 3577 5752 3507 5644 3507 5540 C 3507 5444 3564 5349 3645 5310 L 3690 5288 L 3690 5164 C 3690 5045 3691 5038 3715 5015 C 3743 4986 3760 4984 3800 5005 C 3836 5024 3838 5031 3842 5173 L 3845 5291 L 3893 5317 C 3998 5375 4050 5498 4016 5612 C 3997 5678 3933 5755 3875 5781 C 3826 5804 3722 5805 3665 5784 z M 3836 5606 C 3858 5584 3870 5562 3870 5545 C 3870 5503 3812 5450 3765 5450 C 3679 5450 3636 5559 3701 5614 C 3746 5652 3793 5649 3836 5606 z" stroke-linecap="round" />
</g>
		<g transform="matrix(0.13 0 0 -0.13 291.04 -9.39)"  >
<path style="stroke: none; stroke-width: 1; stroke-dasharray: none; stroke-linecap: butt; stroke-dashoffset: 0; stroke-linejoin: miter; stroke-miterlimit: 4; fill: rgb(186,96,216); fill-rule: nonzero; opacity: 1;" vector-effect="non-scaling-stroke"  transform=" translate(-7306.25, -5105.01)" d="M 7111 5786 C 6975 5737 6908 5561 6974 5426 C 7003 5366 7059 5312 7101 5303 L 7128 5298 L 7132 4884 L 7136 4470 L 7162 4443 C 7215 4390 7379 4405 7483 4472 C 7576 4531 7663 4680 7664 4778 C 7665 4825 7661 4835 7637 4856 C 7578 4906 7530 4880 7500 4781 C 7468 4673 7407 4605 7320 4580 L 7290 4571 L 7290 4933 L 7290 5295 L 7326 5315 C 7380 5344 7435 5412 7454 5475 C 7505 5636 7378 5801 7205 5799 C 7172 5799 7130 5793 7111 5786 z M 7271 5611 C 7324 5557 7300 5473 7226 5454 C 7169 5440 7110 5492 7110 5555 C 7110 5595 7160 5640 7205 5640 C 7232 5640 7249 5632 7271 5611 z" stroke-linecap="round" />
</g>
		<g transform="matrix(0.13 0 0 -0.13 -286.92 -50.64)"  >
<path style="stroke: none; stroke-width: 1; stroke-dasharray: none; stroke-linecap: butt; stroke-dashoffset: 0; stroke-linejoin: miter; stroke-miterlimit: 4; fill: rgb(186,96,216); fill-rule: nonzero; opacity: 1;" vector-effect="non-scaling-stroke"  transform=" translate(-2971.58, -5414.39)" d="M 2905 5726 C 2801 5693 2717 5621 2674 5527 C 2649 5473 2645 5453 2645 5375 C 2645 5295 2648 5278 2674 5227 C 2712 5152 2779 5090 2820 5090 C 2857 5090 2900 5131 2900 5168 C 2900 5182 2885 5209 2864 5232 C 2844 5254 2822 5287 2814 5306 C 2769 5413 2842 5544 2962 5570 C 3034 5585 3091 5568 3145 5514 C 3199 5460 3246 5454 3279 5496 C 3316 5543 3300 5592 3226 5657 C 3146 5728 3005 5758 2905 5726 z" stroke-linecap="round" />
</g>
		<g transform="matrix(0.13 0 0 -0.13 46.15 -80.63)"  >
<path style="stroke: none; stroke-width: 1; stroke-dasharray: none; stroke-linecap: butt; stroke-dashoffset: 0; stroke-linejoin: miter; stroke-miterlimit: 4; fill: rgb(186,96,216); fill-rule: nonzero; opacity: 1;" vector-effect="non-scaling-stroke"  transform=" translate(-5469.59, -5639.29)" d="M 5422 5690 C 5396 5666 5393 5624 5416 5592 C 5438 5560 5492 5562 5519 5596 C 5547 5632 5545 5664 5514 5689 C 5480 5716 5450 5716 5422 5690 z" stroke-linecap="round" />
</g>
		<g transform="matrix(0.13 0 0 -0.13 132.18 -74.92)"  >
<path style="stroke: none; stroke-width: 1; stroke-dasharray: none; stroke-linecap: butt; stroke-dashoffset: 0; stroke-linejoin: miter; stroke-miterlimit: 4; fill: rgb(186,96,216); fill-rule: nonzero; opacity: 1;" vector-effect="non-scaling-stroke"  transform=" translate(-6114.81, -5596.45)" d="M 6085 5668 C 6037 5641 6025 5581 6059 5539 C 6101 5487 6190 5522 6190 5590 C 6190 5632 6181 5649 6149 5665 C 6116 5683 6111 5683 6085 5668 z" stroke-linecap="round" />
</g>
		<g transform="matrix(0.13 0 0 -0.13 179.81 -23.4)"  >
<path style="stroke: none; stroke-width: 1; stroke-dasharray: none; stroke-linecap: butt; stroke-dashoffset: 0; stroke-linejoin: miter; stroke-miterlimit: 4; fill: rgb(186,96,216); fill-rule: nonzero; opacity: 1;" vector-effect="non-scaling-stroke"  transform=" translate(-6472.05, -5210.04)" d="M 6415 5324 C 6346 5289 6320 5201 6362 5140 C 6391 5097 6423 5080 6477 5080 C 6510 5080 6527 5087 6554 5111 C 6672 5214 6554 5395 6415 5324 z" stroke-linecap="round" />
</g>
		<g transform="matrix(0.13 0 0 -0.13 -78.39 -6.67)"  >
<path style="stroke: none; stroke-width: 1; stroke-dasharray: none; stroke-linecap: butt; stroke-dashoffset: 0; stroke-linejoin: miter; stroke-miterlimit: 4; fill: rgb(186,96,216); fill-rule: nonzero; opacity: 1;" vector-effect="non-scaling-stroke"  transform=" translate(-4535.53, -5084.55)" d="M 4484 5239 C 4442 5227 4392 5175 4378 5129 C 4358 5061 4390 4978 4452 4939 C 4478 4924 4498 4920 4541 4922 C 4686 4932 4750 5088 4652 5194 C 4605 5244 4551 5259 4484 5239 z" stroke-linecap="round" />
</g>
		<g transform="matrix(0.13 0 0 -0.13 -305.88 56.52)"  >
<path style="stroke: none; stroke-width: 1; stroke-dasharray: none; stroke-linecap: butt; stroke-dashoffset: 0; stroke-linejoin: miter; stroke-miterlimit: 4; fill: rgb(186,96,216); fill-rule: nonzero; opacity: 1;" vector-effect="non-scaling-stroke"  transform=" translate(-2829.38, -4610.64)" d="M 2958 4990 L 2928 4959 L 2935 4764 L 2942 4569 L 2914 4576 C 2805 4602 2751 4666 2711 4816 C 2694 4880 2630 4900 2585 4855 C 2534 4805 2560 4669 2640 4565 C 2706 4480 2826 4411 2908 4410 C 2929 4410 2930 4406 2930 4334 C 2930 4264 2932 4256 2959 4229 C 2991 4197 3006 4194 3045 4212 C 3098 4236 3100 4250 3100 4615 C 3100 4852 3097 4958 3088 4973 C 3059 5029 3004 5036 2958 4990 z" stroke-linecap="round" />
</g>
		<g transform="matrix(0.13 0 0 -0.13 77.09 64.4)"  >
<path style="stroke: none; stroke-width: 1; stroke-dasharray: none; stroke-linecap: butt; stroke-dashoffset: 0; stroke-linejoin: miter; stroke-miterlimit: 4; fill: rgb(186,96,216); fill-rule: nonzero; opacity: 1;" vector-effect="non-scaling-stroke"  transform=" translate(-5701.63, -4551.53)" d="M 5627 4672 C 5575 4640 5545 4547 5571 4497 C 5621 4401 5739 4385 5809 4465 C 5866 4530 5846 4636 5770 4675 C 5731 4695 5662 4694 5627 4672 z" stroke-linecap="round" />
</g>
		<g transform="matrix(0.13 0 0 -0.13 299.11 138.47)"  >
<path style="stroke: none; stroke-width: 1; stroke-dasharray: none; stroke-linecap: butt; stroke-dashoffset: 0; stroke-linejoin: miter; stroke-miterlimit: 4; fill: rgb(186,96,216); fill-rule: nonzero; opacity: 1;" vector-effect="non-scaling-stroke"  transform=" translate(-7366.78, -3996.02)" d="M 7171 4263 C 7136 4234 7129 4180 7136 3965 C 7143 3749 7148 3728 7196 3716 C 7255 3701 7300 3744 7300 3816 C 7300 3847 7304 3853 7338 3866 C 7530 3945 7600 3997 7600 4062 C 7600 4088 7552 4140 7526 4140 C 7520 4140 7467 4115 7408 4085 C 7350 4055 7299 4030 7296 4030 C 7293 4030 7290 4072 7290 4124 C 7290 4235 7287 4246 7249 4265 C 7213 4284 7197 4284 7171 4263 z" stroke-linecap="round" />
</g>
</g>
</g>
</svg>