<?xml version="1.0" standalone="no"?>
<!DOCTYPE svg PUBLIC "-//W3C//DTD SVG 20010904//EN"
 "http://www.w3.org/TR/2001/REC-SVG-20010904/DTD/svg10.dtd">
<svg version="1.0" xmlns="http://www.w3.org/2000/svg"
 width="1024.000000pt" height="1024.000000pt" viewBox="0 0 1024.000000 1024.000000"
 preserveAspectRatio="xMidYMid meet">

<g transform="translate(0.000000,1024.000000) scale(0.100000,-0.100000)"
fill="#000000" stroke="none">
<path d="M4885 8243 c-414 -35 -834 -152 -1190 -331 -621 -311 -1134 -833
-1464 -1490 -106 -212 -192 -461 -250 -727 -61 -279 -66 -331 -66 -700 1 -312
2 -338 27 -485 121 -698 419 -1275 904 -1752 538 -529 1283 -868 2038 -928
855 -68 1754 242 2412 831 469 419 812 1002 952 1619 174 764 76 1532 -281
2210 -324 617 -837 1129 -1424 1424 -347 173 -740 288 -1117 325 -100 10 -444
13 -541 4z m543 -334 c295 -32 707 -158 969 -295 447 -233 795 -538 1090 -956
194 -274 341 -594 431 -938 94 -357 116 -789 56 -1140 -23 -136 -82 -362 -131
-504 -78 -223 -222 -522 -295 -610 l-29 -36 -108 0 -108 0 -6 68 c-5 51 -11
71 -28 85 -31 25 -75 22 -104 -8 -21 -20 -25 -34 -25 -85 l0 -61 -57 3 -58 3
-5 628 -5 629 -24 19 c-41 33 -93 24 -116 -22 -12 -23 -15 -91 -15 -382 l0
-355 -26 -6 c-14 -4 -82 -33 -150 -66 l-124 -59 0 485 c0 414 -2 489 -15 514
-27 52 -106 52 -132 0 -9 -18 -13 -100 -13 -302 0 -216 -3 -278 -12 -278 -34
0 -118 52 -160 99 -58 65 -80 127 -87 254 -5 88 -9 101 -30 118 -24 19 -56 24
-86 13 -65 -25 -59 -244 10 -392 61 -129 175 -221 305 -248 l55 -11 3 -321 2
-322 -205 0 -205 0 0 81 0 82 69 72 c101 107 124 184 69 235 -53 49 -126 6
-199 -118 l-27 -44 -32 48 c-84 125 -158 165 -207 112 -54 -60 -30 -123 92
-246 l85 -85 0 -68 0 -69 -320 0 -320 0 0 164 0 164 230 223 c137 132 233 233
237 248 14 55 -50 111 -104 90 -15 -6 -93 -74 -173 -152 -80 -79 -155 -151
-167 -161 l-23 -19 0 324 0 324 102 99 c57 54 147 138 200 187 92 84 100 89
141 89 55 0 120 41 154 96 44 73 22 185 -45 233 -136 96 -310 -2 -300 -170 l3
-59 -120 -120 c-66 -66 -123 -120 -127 -120 -5 0 -8 219 -8 488 l0 487 67 60
c37 33 142 129 233 214 91 85 177 165 191 178 18 17 42 25 79 28 66 6 127 41
164 94 92 133 -12 321 -176 321 -115 0 -199 -78 -206 -193 -3 -41 1 -75 11
-99 l15 -35 -43 -36 c-24 -20 -106 -97 -183 -172 -77 -74 -142 -135 -146 -135
-3 0 -6 94 -6 208 l0 209 137 134 c340 332 323 313 323 346 0 37 -31 79 -64
85 -44 9 -79 -18 -234 -176 -85 -86 -155 -156 -158 -156 -2 0 -4 43 -4 97 l0
96 49 52 c40 42 51 61 56 100 14 87 -26 169 -100 205 -107 52 -227 0 -260
-114 -24 -80 -6 -143 59 -205 l36 -35 0 -100 0 -100 -169 167 c-156 155 -171
167 -205 167 -48 0 -86 -36 -86 -82 -1 -30 20 -54 230 -259 l230 -226 0 -526
c0 -290 -3 -527 -6 -527 -3 0 -104 95 -224 212 l-219 212 36 35 c92 89 96 209
10 307 -89 101 -259 92 -333 -19 -78 -118 -40 -274 80 -323 39 -16 46 -24 57
-62 11 -38 46 -76 305 -324 l294 -281 0 -354 0 -354 -30 21 c-16 11 -32 25
-35 30 -3 5 -71 70 -151 145 -158 148 -177 157 -230 112 -31 -27 -35 -73 -11
-111 14 -21 318 -313 414 -398 l42 -37 3 -115 c2 -64 1 -116 -1 -116 -2 0 -51
44 -108 98 -216 201 -242 222 -274 222 -41 0 -64 -14 -78 -48 -22 -53 -27 -48
367 -427 l92 -89 0 -168 0 -168 -315 0 -315 0 0 74 0 74 75 73 c46 44 85 93
101 125 23 47 25 57 14 89 -31 95 -122 66 -216 -70 -20 -30 -38 -55 -40 -55
-1 0 -14 21 -29 48 -67 115 -154 163 -205 112 -25 -25 -27 -88 -4 -133 18 -34
71 -103 116 -149 26 -27 28 -35 28 -109 l0 -79 -202 2 -203 3 -3 220 c-2 121
0 266 3 321 l7 102 42 4 c75 9 160 55 224 122 103 107 142 212 142 383 0 91
-2 105 -21 124 -29 29 -85 23 -112 -14 -17 -21 -22 -48 -27 -125 -7 -115 -35
-185 -97 -247 -39 -38 -137 -94 -148 -84 -2 3 -7 133 -11 290 l-6 284 -24 22
c-33 30 -69 29 -99 -2 l-25 -24 0 -497 c0 -393 -3 -495 -12 -491 -7 3 -79 36
-161 73 l-147 68 0 342 c0 351 -4 395 -40 414 -31 16 -72 11 -97 -12 l-23 -21
0 -629 0 -628 -55 0 -55 0 0 284 c0 292 -5 337 -40 356 -32 17 -82 11 -106
-11 l-23 -21 -99 46 c-127 59 -159 60 -188 5 -36 -71 39 -143 216 -205 l65
-23 3 -216 2 -215 -104 0 c-121 0 -119 -1 -185 109 -103 175 -224 452 -285
654 -45 150 -102 413 -115 539 -14 125 -14 440 -1 566 27 247 108 565 207 806
97 239 261 517 426 721 160 198 397 423 600 569 371 265 881 460 1362 519 71
9 504 6 593 -4z m366 -1361 c24 -40 -44 -80 -71 -42 -17 23 -16 29 3 49 20 20
53 16 68 -7z m-1286 -470 c17 -17 15 -53 -3 -68 -38 -31 -96 27 -65 65 15 18
51 20 68 3z m-925 -2398 l107 -52 0 -99 0 -99 -160 0 -160 0 0 175 0 175 53
-24 c28 -13 100 -47 160 -76z m3277 -75 l0 -175 -150 0 -150 0 0 103 0 102
148 72 c81 39 148 72 150 72 1 1 2 -78 2 -174z m409 -474 c32 -21 -89 -155
-151 -166 -18 -3 -926 -5 -2018 -3 -1830 3 -1987 4 -2015 20 -43 24 -125 116
-125 140 0 14 4287 23 4309 9z m-1854 -363 c20 -23 25 -38 20 -57 -13 -58 -79
-79 -122 -39 -31 29 -30 72 2 103 33 34 67 32 100 -7z m-1220 -73 c45 -44 24
-115 -37 -130 -13 -3 -140 -5 -282 -3 l-258 3 -24 28 c-31 36 -31 71 1 102
l24 25 276 0 276 0 24 -25z m2452 10 c47 -33 32 -110 -25 -134 -20 -9 -95 -11
-251 -9 -220 3 -223 3 -242 27 -25 31 -25 85 1 111 19 19 33 20 258 20 193 0
241 -3 259 -15z m-1240 -219 c19 -23 23 -36 19 -60 -14 -69 9 -66 -508 -69
-454 -2 -466 -1 -488 18 -32 29 -42 60 -28 91 25 54 25 54 521 51 l459 -2 25
-29z m428 12 c53 -46 19 -138 -51 -138 -35 0 -74 42 -74 80 0 38 39 80 74 80
14 0 37 -10 51 -22z"/>
<path d="M4444 7339 c-47 -24 -56 -87 -19 -124 32 -33 83 -34 113 -2 28 29 29
87 4 110 -24 22 -71 29 -98 16z"/>
<path d="M5767 7330 c-50 -40 -39 -114 22 -139 24 -10 34 -10 60 3 56 29 68
90 26 131 -30 31 -73 32 -108 5z"/>
<path d="M3812 7251 c-103 -36 -174 -135 -175 -246 0 -102 54 -188 148 -231
96 -45 206 -28 285 43 119 107 119 284 -1 386 -76 65 -161 81 -257 48z m154
-175 c44 -44 45 -83 5 -128 -25 -28 -36 -33 -76 -33 -40 0 -50 4 -71 30 -37
46 -33 95 11 134 49 42 87 41 131 -3z"/>
<path d="M6295 6995 c-69 -69 12 -179 98 -133 31 16 46 39 47 70 0 40 -9 57
-41 73 -41 22 -77 18 -104 -10z"/>
<path d="M3230 6578 c-77 -30 -160 -114 -189 -193 -31 -81 -27 -197 9 -270 27
-55 92 -125 138 -149 173 -89 384 -20 469 153 24 49 28 67 28 146 -1 78 -4 97
-28 143 -65 125 -155 184 -291 189 -65 3 -92 -1 -136 -19z m187 -153 c48 -20
71 -41 94 -87 52 -102 -19 -232 -135 -245 -60 -7 -89 1 -131 39 -48 41 -65 77
-65 134 0 124 123 206 237 159z"/>
<path d="M4005 6545 c-15 -14 -25 -36 -25 -53 0 -85 108 -114 146 -40 41 79
-59 156 -121 93z"/>
<path d="M6628 6513 c-36 -42 -27 -82 29 -134 98 -92 307 -107 378 -29 25 27
23 76 -3 102 -18 19 -25 20 -66 9 -80 -20 -119 -14 -201 29 -83 44 -114 49
-137 23z"/>
<path d="M6079 6119 c-59 -63 -42 -154 35 -193 32 -16 44 -17 76 -7 56 17 90
62 90 118 0 38 -5 50 -34 79 -30 30 -40 34 -86 34 -45 0 -56 -4 -81 -31z"/>
<path d="M6751 6044 c-29 -37 -26 -70 8 -105 31 -31 55 -36 94 -18 47 21 60
80 26 123 -16 21 -29 26 -64 26 -35 0 -48 -5 -64 -26z"/>
<path d="M3665 5784 c-88 -32 -158 -140 -158 -244 0 -96 57 -191 138 -230 l45
-22 0 -124 c0 -119 1 -126 25 -149 28 -29 45 -31 85 -10 36 19 38 26 42 168
l3 118 48 26 c105 58 157 181 123 295 -19 66 -83 143 -141 169 -49 23 -153 24
-210 3z m171 -178 c22 -22 34 -44 34 -61 0 -42 -58 -95 -105 -95 -86 0 -129
109 -64 164 45 38 92 35 135 -8z"/>
<path d="M7111 5786 c-136 -49 -203 -225 -137 -360 29 -60 85 -114 127 -123
l27 -5 4 -414 4 -414 26 -27 c53 -53 217 -38 321 29 93 59 180 208 181 306 1
47 -3 57 -27 78 -59 50 -107 24 -137 -75 -32 -108 -93 -176 -180 -201 l-30 -9
0 362 0 362 36 20 c54 29 109 97 128 160 51 161 -76 326 -249 324 -33 0 -75
-6 -94 -13z m160 -175 c53 -54 29 -138 -45 -157 -57 -14 -116 38 -116 101 0
40 50 85 95 85 27 0 44 -8 66 -29z"/>
<path d="M2905 5726 c-104 -33 -188 -105 -231 -199 -25 -54 -29 -74 -29 -152
0 -80 3 -97 29 -148 38 -75 105 -137 146 -137 37 0 80 41 80 78 0 14 -15 41
-36 64 -20 22 -42 55 -50 74 -45 107 28 238 148 264 72 15 129 -2 183 -56 54
-54 101 -60 134 -18 37 47 21 96 -53 161 -80 71 -221 101 -321 69z"/>
<path d="M5422 5690 c-26 -24 -29 -66 -6 -98 22 -32 76 -30 103 4 28 36 26 68
-5 93 -34 27 -64 27 -92 1z"/>
<path d="M6085 5668 c-48 -27 -60 -87 -26 -129 42 -52 131 -17 131 51 0 42 -9
59 -41 75 -33 18 -38 18 -64 3z"/>
<path d="M6415 5324 c-69 -35 -95 -123 -53 -184 29 -43 61 -60 115 -60 33 0
50 7 77 31 118 103 0 284 -139 213z"/>
<path d="M4484 5239 c-42 -12 -92 -64 -106 -110 -20 -68 12 -151 74 -190 26
-15 46 -19 89 -17 145 10 209 166 111 272 -47 50 -101 65 -168 45z"/>
<path d="M2958 4990 l-30 -31 7 -195 7 -195 -28 7 c-109 26 -163 90 -203 240
-17 64 -81 84 -126 39 -51 -50 -25 -186 55 -290 66 -85 186 -154 268 -155 21
0 22 -4 22 -76 0 -70 2 -78 29 -105 32 -32 47 -35 86 -17 53 24 55 38 55 403
0 237 -3 343 -12 358 -29 56 -84 63 -130 17z"/>
<path d="M5627 4672 c-52 -32 -82 -125 -56 -175 50 -96 168 -112 238 -32 57
65 37 171 -39 210 -39 20 -108 19 -143 -3z"/>
<path d="M7171 4263 c-35 -29 -42 -83 -35 -298 7 -216 12 -237 60 -249 59 -15
104 28 104 100 0 31 4 37 38 50 192 79 262 131 262 196 0 26 -48 78 -74 78 -6
0 -59 -25 -118 -55 -58 -30 -109 -55 -112 -55 -3 0 -6 42 -6 94 0 111 -3 122
-41 141 -36 19 -52 19 -78 -2z"/>
</g>
</svg>
